<svg width="35" height="35" viewBox="0 0 35 35" fill="none" xmlns="http://www.w3.org/2000/svg">
    <path d="M17.5 35C27.165 35 35 27.165 35 17.5C35 7.83502 27.165 0 17.5 0C7.83502 0 0 7.83502 0 17.5C0 27.165 7.83502 35 17.5 35Z" fill="#F8F8F8"/>
    <mask id="path-2-inside-1_63_28067" fill="white">
        <path d="M24.9995 19.249C25.274 19.4678 25.6209 19.5995 25.9995 19.5996V22L25.9946 22.2061C25.8909 24.2512 24.2507 25.8913 22.2056 25.9951L21.9995 26H13.0005L12.7944 25.9951C10.681 25.8879 9.00049 24.14 9.00049 22V19.5996L9.00146 19.6006C9.37936 19.6005 9.72618 19.4689 10.0005 19.251V22C10.0005 23.6569 11.3436 25 13.0005 25H21.9995C23.6564 25 24.9995 23.6569 24.9995 22V19.249ZM9.00146 17.4004C9.3386 17.4005 9.60672 17.672 9.60693 18C9.60667 18.328 9.33857 18.6005 9.00146 18.6006L9.00049 18.5996V17.4004H9.00146ZM25.9995 18.5996C25.6625 18.5993 25.3953 18.3279 25.395 18C25.3952 17.6721 25.6625 17.4007 25.9995 17.4004V18.5996ZM22.2056 10.0049C24.319 10.1121 25.9995 11.86 25.9995 14V16.4004C25.6211 16.4005 25.2739 16.5316 24.9995 16.75V14C24.9995 12.3431 23.6564 11 21.9995 11H13.0005C11.3436 11 10.0005 12.3431 10.0005 14V16.748C9.72624 16.5304 9.3792 16.4004 9.00146 16.4004H9.00049V14C9.00049 11.7909 10.7914 10 13.0005 10H21.9995L22.2056 10.0049Z"/>
    </mask>
    <path d="M24.9995 19.249L25.6228 18.467L23.9995 17.1733V19.249H24.9995ZM25.9995 19.5996H26.9995V18.5999L25.9998 18.5996L25.9995 19.5996ZM25.9995 22L26.9992 22.0237L26.9995 22.0118V22H25.9995ZM25.9946 22.2061L26.9933 22.2567L26.994 22.2432L26.9943 22.2297L25.9946 22.2061ZM22.2056 25.9951L22.2293 26.9948L22.2428 26.9945L22.2562 26.9938L22.2056 25.9951ZM21.9995 26V27H22.0114L22.0232 26.9997L21.9995 26ZM13.0005 26L12.9768 26.9997L12.9886 27H13.0005V26ZM12.7944 25.9951L12.7438 26.9938L12.7572 26.9945L12.7707 26.9948L12.7944 25.9951ZM9.00049 19.5996L9.7076 18.8925L8.00049 17.1854V19.5996H9.00049ZM9.00146 19.6006L8.29436 20.3077L8.5873 20.6006L9.00159 20.6006L9.00146 19.6006ZM10.0005 19.251H11.0005V17.1792L9.37839 18.468L10.0005 19.251ZM21.9995 25L21.9995 26L21.9995 26L21.9995 25ZM9.00146 17.4004L9.0018 16.4004H9.00146V17.4004ZM9.60693 18L10.6069 18.0008L10.6069 17.9994L9.60693 18ZM9.00146 18.6006L8.29436 19.3077L8.58739 19.6007L9.0018 19.6006L9.00146 18.6006ZM9.00049 18.5996H8.00049V19.0138L8.29338 19.3067L9.00049 18.5996ZM9.00049 17.4004V16.4004H8.00049V17.4004H9.00049ZM25.9995 18.5996L25.9987 19.5996L26.9995 19.6004V18.5996H25.9995ZM25.395 18L24.395 17.9994L24.395 18.0008L25.395 18ZM25.9995 17.4004H26.9995V16.3996L25.9987 16.4004L25.9995 17.4004ZM22.2056 10.0049L22.2562 9.00617L22.2428 9.00548L22.2293 9.00516L22.2056 10.0049ZM25.9995 16.4004L25.9998 17.4004L26.9995 17.4001V16.4004H25.9995ZM24.9995 16.75H23.9995V18.8242L25.6223 17.5324L24.9995 16.75ZM21.9995 11L21.9995 10H21.9995V11ZM13.0005 11L13.0005 10L13.0005 10L13.0005 11ZM10.0005 14L9.00049 14V14H10.0005ZM10.0005 16.748L9.37883 17.5313L11.0005 18.8184V16.748H10.0005ZM9.00146 16.4004L9.00159 15.4004H9.00146V16.4004ZM9.00049 16.4004H8.00049V17.4004H9.00049V16.4004ZM9.00049 14L8.00049 14V14H9.00049ZM13.0005 10L13.0005 9H13.0005L13.0005 10ZM21.9995 10L22.0232 9.00028L22.0114 9H21.9995V10ZM24.9995 19.249L24.3763 20.031C24.8196 20.3844 25.3841 20.5994 25.9992 20.5996L25.9995 19.5996L25.9998 18.5996C25.8577 18.5996 25.7283 18.5511 25.6228 18.467L24.9995 19.249ZM25.9995 19.5996H24.9995V22H25.9995H26.9995V19.5996H25.9995ZM25.9995 22L24.9998 21.9763L24.9949 22.1824L25.9946 22.2061L26.9943 22.2297L26.9992 22.0237L25.9995 22ZM25.9946 22.2061L24.9959 22.1554C24.9181 23.6881 23.6876 24.9186 22.1549 24.9964L22.2056 25.9951L22.2562 26.9938C24.8138 26.8641 26.8636 24.8143 26.9933 22.2567L25.9946 22.2061ZM22.2056 25.9951L22.1819 24.9954L21.9758 25.0003L21.9995 26L22.0232 26.9997L22.2293 26.9948L22.2056 25.9951ZM21.9995 26V25H13.0005V26V27H21.9995V26ZM13.0005 26L13.0242 25.0003L12.8181 24.9954L12.7944 25.9951L12.7707 26.9948L12.9768 26.9997L13.0005 26ZM12.7944 25.9951L12.8451 24.9964C11.261 24.916 10.0005 23.6048 10.0005 22H9.00049H8.00049C8.00049 24.6752 10.1011 26.8597 12.7438 26.9938L12.7944 25.9951ZM9.00049 22H10.0005V19.5996H9.00049H8.00049V22H9.00049ZM9.00049 19.5996L8.29338 20.3067L8.29436 20.3077L9.00146 19.6006L9.70857 18.8935L9.7076 18.8925L9.00049 19.5996ZM9.00146 19.6006L9.00159 20.6006C9.61602 20.6005 10.1799 20.3856 10.6226 20.0339L10.0005 19.251L9.37839 18.468C9.27243 18.5522 9.1427 18.6006 9.00134 18.6006L9.00146 19.6006ZM10.0005 19.251H9.00049V22H10.0005H11.0005V19.251H10.0005ZM10.0005 22H9.00049C9.00049 24.2091 10.7913 26 13.0005 26V25V24C11.8959 24 11.0005 23.1046 11.0005 22H10.0005ZM13.0005 25V26H21.9995V25V24H13.0005V25ZM21.9995 25L21.9995 26C24.2086 26 25.9995 24.2091 25.9995 22H24.9995H23.9995C23.9995 23.1046 23.1041 24 21.9995 24L21.9995 25ZM24.9995 22H25.9995V19.249H24.9995H23.9995V22H24.9995ZM9.00146 17.4004L9.00113 18.4004C8.78879 18.4003 8.60708 18.2269 8.60693 18.0006L9.60693 18L10.6069 17.9994C10.6064 17.117 9.88841 16.4007 9.0018 16.4004L9.00146 17.4004ZM9.60693 18L8.60693 17.9992C8.60712 17.7752 8.78649 17.6007 9.00113 17.6006L9.00146 18.6006L9.0018 19.6006C9.89064 19.6003 10.6062 18.8807 10.6069 18.0008L9.60693 18ZM9.00146 18.6006L9.70857 17.8935L9.7076 17.8925L9.00049 18.5996L8.29338 19.3067L8.29436 19.3077L9.00146 18.6006ZM9.00049 18.5996H10.0005V17.4004H9.00049H8.00049V18.5996H9.00049ZM9.00049 17.4004V18.4004H9.00146V17.4004V16.4004H9.00049V17.4004ZM25.9995 18.5996L26.0003 17.5996C26.2143 17.5998 26.3948 17.7747 26.395 17.9992L25.395 18L24.395 18.0008C24.3957 18.8811 25.1108 19.5989 25.9987 19.5996L25.9995 18.5996ZM25.395 18L26.395 18.0006C26.3949 18.2254 26.2141 18.4002 26.0003 18.4004L25.9995 17.4004L25.9987 16.4004C25.1109 16.4011 24.3956 17.1187 24.395 17.9994L25.395 18ZM25.9995 17.4004H24.9995V18.5996H25.9995H26.9995V17.4004H25.9995ZM22.2056 10.0049L22.1549 11.0036C23.739 11.084 24.9995 12.3952 24.9995 14H25.9995H26.9995C26.9995 11.3248 24.8989 9.14026 22.2562 9.00617L22.2056 10.0049ZM25.9995 14H24.9995V16.4004H25.9995H26.9995V14H25.9995ZM25.9995 16.4004L25.9992 15.4004C25.3857 15.4006 24.8209 15.614 24.3767 15.9676L24.9995 16.75L25.6223 17.5324C25.7269 17.4491 25.8565 17.4004 25.9998 17.4004L25.9995 16.4004ZM24.9995 16.75H25.9995V14H24.9995H23.9995V16.75H24.9995ZM24.9995 14H25.9995C25.9995 11.7909 24.2086 10 21.9995 10L21.9995 11L21.9995 12C23.1041 12 23.9995 12.8954 23.9995 14H24.9995ZM21.9995 11V10H13.0005V11V12H21.9995V11ZM13.0005 11L13.0005 10C10.7914 10 9.00049 11.7909 9.00049 14L10.0005 14L11.0005 14C11.0005 12.8954 11.8959 12 13.0005 12L13.0005 11ZM10.0005 14H9.00049V16.748H10.0005H11.0005V14H10.0005ZM10.0005 16.748L10.6221 15.9648C10.1772 15.6116 9.61268 15.4005 9.00159 15.4004L9.00146 16.4004L9.00134 17.4004C9.14571 17.4004 9.27527 17.4491 9.37883 17.5313L10.0005 16.748ZM9.00146 16.4004V15.4004H9.00049V16.4004V17.4004H9.00146V16.4004ZM9.00049 16.4004H10.0005V14H9.00049H8.00049V16.4004H9.00049ZM9.00049 14L10.0005 14C10.0005 12.3431 11.3436 11 13.0005 11L13.0005 10L13.0005 9C10.2391 9 8.00049 11.2386 8.00049 14L9.00049 14ZM13.0005 10V11H21.9995V10V9H13.0005V10ZM21.9995 10L21.9758 10.9997L22.1819 11.0046L22.2056 10.0049L22.2293 9.00516L22.0232 9.00028L21.9995 10Z" fill="#004CFF" mask="url(#path-2-inside-1_63_28067)"/>
    <path d="M11 18H24" stroke="#004CFF" stroke-dasharray="1"/>
</svg>
