<svg xmlns="http://www.w3.org/2000/svg" width="35" height="35" fill="none" viewBox="0 0 35 35"><path fill="#F8F8F8" d="M17.5 35C27.165 35 35 27.165 35 17.5C35 7.83502 27.165 0 17.5 0C7.83502 0 0 7.83502 0 17.5C0 27.165 7.83502 35 17.5 35Z"/><path stroke="#004CFF" stroke-linecap="round" d="M17.968 14H22.968"/><path stroke="#004CFF" stroke-linecap="round" d="M12 17H23"/><path stroke="#004CFF" stroke-linecap="round" d="M12 20H23"/><path fill="#004CFF" stroke="#fff" d="M30 0.5C32.4853 0.5 34.5 2.51472 34.5 5C34.5 7.48528 32.4853 9.5 30 9.5C27.5147 9.5 25.5 7.48528 25.5 5C25.5 2.51472 27.5147 0.5 30 0.5Z"/></svg>