<svg xmlns="http://www.w3.org/2000/svg" width="35" height="35" fill="none" viewBox="0 0 35 35"><path fill="#F8F8F8" d="M17.5 35C27.165 35 35 27.165 35 17.5C35 7.83502 27.165 0 17.5 0C7.83502 0 0 7.83502 0 17.5C0 27.165 7.83502 35 17.5 35Z"/><g clip-path="url(#clip0_63_28068)"><path stroke="#004BFE" stroke-linecap="round" stroke-linejoin="round" d="M19.75 17.5C19.75 17.945 19.618 18.38 19.3708 18.75C19.1236 19.12 18.7722 19.4084 18.361 19.5787C17.9499 19.749 17.4975 19.7936 17.061 19.7068C16.6246 19.6199 16.2237 19.4057 15.909 19.091C15.5943 18.7763 15.3801 18.3754 15.2932 17.939C15.2064 17.5025 15.251 17.0501 15.4213 16.639C15.5916 16.2278 15.88 15.8764 16.25 15.6292C16.62 15.382 17.055 15.25 17.5 15.25C18.0967 15.25 18.669 15.4871 19.091 15.909C19.5129 16.331 19.75 16.9033 19.75 17.5Z"/><path stroke="#004BFE" stroke-linecap="round" stroke-linejoin="round" d="M22.8821 19.682C22.7852 19.9014 22.7562 20.1448 22.799 20.3808C22.8418 20.6168 22.9543 20.8346 23.1221 21.006L23.1661 21.05C23.439 21.3229 23.5923 21.693 23.5923 22.079C23.5923 22.4649 23.439 22.8351 23.1661 23.108C22.8931 23.3809 22.523 23.5342 22.1371 23.5342C21.7511 23.5342 21.381 23.3809 21.1081 23.108L21.0641 23.064C20.894 22.8996 20.6794 22.7886 20.447 22.7448C20.2145 22.701 19.9743 22.7263 19.756 22.8176C19.5378 22.9089 19.3511 23.0622 19.219 23.2585C19.087 23.4548 19.0154 23.6854 19.0131 23.922V24.046C19.0031 24.4252 18.8455 24.7854 18.5738 25.0501C18.3021 25.3148 17.9378 25.4629 17.5586 25.4629C17.1793 25.4629 16.815 25.3148 16.5433 25.0501C16.2716 24.7854 16.114 24.4252 16.1041 24.046V23.98C16.0988 23.739 16.0211 23.5052 15.8811 23.309C15.7411 23.1128 15.5452 22.9633 15.3191 22.88C15.0997 22.7831 14.8562 22.7542 14.6203 22.797C14.3843 22.8397 14.1665 22.9523 13.9951 23.12L13.9511 23.164C13.6781 23.4369 13.308 23.5902 12.9221 23.5902C12.5361 23.5902 12.166 23.4369 11.8931 23.164C11.6201 22.8911 11.4668 22.5209 11.4668 22.135C11.4668 21.749 11.6201 21.3789 11.8931 21.106L11.9371 21.062C12.1015 20.8919 12.2125 20.6774 12.2563 20.4449C12.3 20.2124 12.2747 19.9722 12.1834 19.754C12.0921 19.5357 11.9389 19.349 11.7426 19.217C11.5463 19.0849 11.3156 19.0133 11.0791 19.011H10.9551C10.7608 19.0161 10.5676 18.9822 10.3866 18.9114C10.2057 18.8406 10.0408 18.7343 9.90165 18.5987C9.76248 18.4632 9.65187 18.3011 9.57635 18.1221C9.50082 17.9431 9.46191 17.7508 9.46191 17.5565C9.46191 17.3622 9.50082 17.1699 9.57635 16.9909C9.65187 16.8119 9.76248 16.6498 9.90165 16.5143C10.0408 16.3787 10.2057 16.2724 10.3866 16.2016C10.5676 16.1308 10.7608 16.0969 10.9551 16.102H11.0201C11.261 16.0968 11.4949 16.0191 11.6911 15.8791C11.8873 15.739 12.0368 15.5432 12.1201 15.317C12.2169 15.0976 12.2459 14.8542 12.2031 14.6182C12.1603 14.3822 12.0478 14.1644 11.8801 13.993L11.8361 13.949C11.6934 13.8157 11.5791 13.655 11.4999 13.4766C11.4207 13.2982 11.3782 13.1056 11.3749 12.9104C11.3717 12.7152 11.4077 12.5214 11.4809 12.3404C11.5542 12.1594 11.663 11.9951 11.8011 11.8571C11.9392 11.719 12.1036 11.6102 12.2846 11.5371C12.4656 11.464 12.6595 11.428 12.8547 11.4314C13.0499 11.4347 13.2424 11.4773 13.4208 11.5566C13.5992 11.6359 13.7598 11.7503 13.8931 11.893L13.9371 11.937C14.1085 12.1047 14.3263 12.2173 14.5623 12.26C14.7982 12.3028 15.0417 12.2739 15.2611 12.177H15.3191C15.5344 12.0846 15.718 11.9313 15.8472 11.7358C15.9764 11.5403 16.0455 11.3113 16.0461 11.077V10.955C16.056 10.5758 16.2136 10.2156 16.4853 9.9509C16.757 9.68624 17.1213 9.53814 17.5006 9.53814C17.8798 9.53814 18.2441 9.68624 18.5158 9.9509C18.7875 10.2156 18.9451 10.5758 18.9551 10.955V11.02C18.9574 11.2566 19.029 11.4872 19.161 11.6835C19.2931 11.8798 19.4798 12.0331 19.698 12.1244C19.9163 12.2157 20.1565 12.241 20.389 12.1972C20.6214 12.1534 20.836 12.0424 21.0061 11.878L21.0501 11.834C21.1852 11.6989 21.3456 11.5917 21.5222 11.5185C21.6987 11.4454 21.888 11.4078 22.0791 11.4078C22.2702 11.4078 22.4594 11.4454 22.6359 11.5185C22.8125 11.5917 22.9729 11.6989 23.1081 11.834C23.2432 11.9691 23.3504 12.1296 23.4235 12.3061C23.4966 12.4827 23.5343 12.6719 23.5343 12.863C23.5343 13.0541 23.4966 13.2433 23.4235 13.4199C23.3504 13.5964 23.2432 13.7569 23.1081 13.892L23.0641 13.936C22.8963 14.1074 22.7838 14.3252 22.741 14.5612C22.6982 14.7972 22.7272 15.0406 22.8241 15.26V15.318C22.9164 15.5333 23.0698 15.7169 23.2653 15.8461C23.4607 15.9753 23.6897 16.0444 23.9241 16.045H24.0481C24.4272 16.0549 24.7875 16.2125 25.0522 16.4842C25.3168 16.7559 25.4649 17.1202 25.4649 17.4995C25.4649 17.8788 25.3168 18.2431 25.0522 18.5148C24.7875 18.7865 24.4272 18.9441 24.0481 18.954H23.9801C23.7457 18.9546 23.5167 19.0237 23.3213 19.1529C23.1258 19.2821 22.9724 19.4657 22.8801 19.681L22.8821 19.682Z"/></g><defs><clipPath id="clip0_63_28068"><rect width="17" height="17" fill="#fff" transform="translate(9 9)"/></clipPath></defs></svg>