<svg xmlns="http://www.w3.org/2000/svg" width="22" height="24" fill="none" viewBox="0 0 22 24"><path stroke="#004BFE" stroke-width="2" d="M10.6729 1C12.7013 1 14.3457 2.64439 14.3457 4.67285C14.3457 6.70132 12.7013 8.3457 10.6729 8.3457C8.64439 8.34569 7 6.70131 7 4.67285C7.00001 2.6444 8.6444 1.00001 10.6729 1Z"/><g clip-path="url(#clip0_63_28106)"><path stroke="#004BFE" stroke-width="2" d="M20.921 23.064V18.673C20.879 17.3934 20.331 16.1827 19.3974 15.3067C18.4637 14.4306 17.2207 13.9607 15.941 14H5.98C4.7003 13.9607 3.45725 14.4306 2.52362 15.3067C1.58999 16.1827 1.04204 17.3934 1 18.673V23.064"/></g><defs><clipPath id="clip0_63_28106"><rect width="21.921" height="10.064" fill="#fff" transform="translate(0 13)"/></clipPath></defs></svg>